<svg version="1.2" xmlns="http://www.w3.org/2000/svg" viewBox="0 0 16 16" width="16" height="16">
	<title>search_icon-svg</title>
	<style>
		.s0 { fill: #ff5200 } 
	</style>
	<path id="Layer" fill-rule="evenodd" class="s0" d="m13 7q0 0.5-0.1 1-0.1 0.5-0.2 0.9-0.2 0.5-0.4 0.9-0.3 0.5-0.6 0.9l2.9 2.8-1.1 1.1-2.8-2.9q-0.4 0.3-0.9 0.6-0.4 0.2-0.9 0.4-0.4 0.1-0.9 0.2-0.5 0.1-1 0.1c-3.3 0-6-2.7-6-6 0-3.3 2.7-6 6-6 3.3 0 6 2.7 6 6zm-7.9-4.6q-0.9 0.4-1.6 1.1-0.7 0.7-1.1 1.6-0.4 0.9-0.4 1.9 0 1 0.4 1.9 0.4 0.9 1.1 1.6 0.7 0.7 1.6 1.1 0.9 0.4 1.9 0.4 1 0 1.9-0.4 0.9-0.4 1.6-1.1 0.7-0.7 1.1-1.6 0.4-0.9 0.4-1.9 0-1-0.4-1.9-0.4-0.9-1.1-1.6-0.7-0.7-1.6-1.1-0.9-0.4-1.9-0.4-1 0-1.9 0.4z"/>
</svg>